<svg width="132" height="164" viewBox="0 0 132 164" fill="none" xmlns="http://www.w3.org/2000/svg">
<path id="Pattern" opacity="0.2" d="M3.88184 155.186C6.026 155.186 7.76367 157.047 7.76367 159.343C7.76352 161.638 6.0259 163.499 3.88184 163.499C1.7378 163.499 0.000152361 161.638 0 159.343C0 157.047 1.73771 155.186 3.88184 155.186ZM24.5874 155.186C26.7316 155.186 28.4707 157.047 28.4707 159.343C28.4706 161.638 26.7315 163.499 24.5874 163.499C22.4435 163.498 20.7057 161.638 20.7056 159.343C20.7056 157.047 22.4434 155.186 24.5874 155.186ZM45.293 155.186C47.4371 155.186 49.1763 157.047 49.1763 159.343C49.1761 161.638 47.437 163.499 45.293 163.499C43.1491 163.498 41.4113 161.638 41.4111 159.343C41.4111 157.047 43.149 155.186 45.293 155.186ZM65.9985 155.186C68.1427 155.186 69.8818 157.047 69.8818 159.343C69.8817 161.638 68.1426 163.499 65.9985 163.499C63.8548 163.498 62.1169 161.638 62.1167 159.343C62.1167 157.047 63.8547 155.186 65.9985 155.186ZM86.7056 155.186C88.8496 155.186 90.5874 157.047 90.5874 159.343C90.5872 161.638 88.8495 163.498 86.7056 163.499C84.5615 163.499 82.8239 161.638 82.8237 159.343C82.8237 157.047 84.5614 155.186 86.7056 155.186ZM107.411 155.186C109.555 155.186 111.293 157.047 111.293 159.343C111.293 161.638 109.555 163.499 107.411 163.499C105.267 163.499 103.529 161.638 103.529 159.343C103.529 157.047 105.267 155.186 107.411 155.186ZM128.117 155.186C130.261 155.186 131.999 157.047 131.999 159.343C131.998 161.638 130.261 163.499 128.117 163.499C125.973 163.498 124.235 161.638 124.235 159.343C124.235 157.047 125.973 155.186 128.117 155.186ZM3.88184 133.017C6.02582 133.017 7.76338 134.877 7.76367 137.172C7.76367 139.468 6.026 141.33 3.88184 141.33C1.73771 141.33 0 139.468 0 137.172C0.000292433 134.877 1.73789 133.017 3.88184 133.017ZM24.5874 133.017C26.7314 133.017 28.4704 134.877 28.4707 137.172C28.4707 139.468 26.7316 141.33 24.5874 141.33C22.4434 141.329 20.7056 139.468 20.7056 137.172C20.7059 134.877 22.4435 133.017 24.5874 133.017ZM45.293 133.017C47.4369 133.017 49.176 134.877 49.1763 137.172C49.1763 139.468 47.4371 141.33 45.293 141.33C43.149 141.329 41.4111 139.468 41.4111 137.172C41.4114 134.877 43.1492 133.017 45.293 133.017ZM65.9985 133.017C68.1425 133.017 69.8815 134.877 69.8818 137.172C69.8818 139.468 68.1427 141.33 65.9985 141.33C63.8547 141.329 62.1167 139.468 62.1167 137.172C62.117 134.877 63.8548 133.017 65.9985 133.017ZM86.7056 133.017C88.8494 133.017 90.5871 134.877 90.5874 137.172C90.5874 139.468 88.8496 141.329 86.7056 141.33C84.5614 141.33 82.8237 139.468 82.8237 137.172C82.824 134.877 84.5616 133.017 86.7056 133.017ZM107.411 133.017C109.555 133.017 111.293 134.877 111.293 137.172C111.293 139.468 109.555 141.33 107.411 141.33C105.267 141.33 103.529 139.468 103.529 137.172C103.53 134.877 105.267 133.017 107.411 133.017ZM128.117 133.017C130.261 133.017 131.998 134.877 131.999 137.172C131.999 139.468 130.261 141.33 128.117 141.33C125.973 141.329 124.235 139.468 124.235 137.172C124.235 134.877 125.973 133.017 128.117 133.017ZM3.88184 110.846C6.026 110.846 7.76367 112.708 7.76367 115.003C7.76367 117.299 6.02599 119.161 3.88184 119.161C1.73771 119.161 2.16638e-06 117.299 0 115.003C0 112.708 1.73771 110.846 3.88184 110.846ZM24.5874 110.846C26.7316 110.846 28.4707 112.708 28.4707 115.003C28.4707 117.299 26.7316 119.161 24.5874 119.161C22.4434 119.16 20.7056 117.299 20.7056 115.003C20.7056 112.708 22.4434 110.846 24.5874 110.846ZM45.293 110.846C47.4371 110.846 49.1763 112.708 49.1763 115.003C49.1763 117.299 47.4371 119.161 45.293 119.161C43.149 119.16 41.4111 117.299 41.4111 115.003C41.4111 112.708 43.149 110.846 45.293 110.846ZM65.9985 110.846C68.1427 110.846 69.8818 112.708 69.8818 115.003C69.8818 117.299 68.1427 119.161 65.9985 119.161C63.8547 119.16 62.1167 117.299 62.1167 115.003C62.1167 112.708 63.8547 110.847 65.9985 110.846ZM86.7056 110.846C88.8496 110.846 90.5874 112.708 90.5874 115.003C90.5874 117.299 88.8496 119.161 86.7056 119.161C84.5614 119.161 82.8237 117.299 82.8237 115.003C82.8237 112.708 84.5614 110.846 86.7056 110.846ZM107.411 110.846C109.555 110.846 111.293 112.708 111.293 115.003C111.293 117.299 109.555 119.161 107.411 119.161C105.267 119.161 103.529 117.299 103.529 115.003C103.529 112.708 105.267 110.846 107.411 110.846ZM128.117 110.846C130.261 110.846 131.999 112.708 131.999 115.003C131.999 117.299 130.261 119.161 128.117 119.161C125.973 119.161 124.235 117.299 124.235 115.003C124.235 112.708 125.973 110.846 128.117 110.846ZM3.88184 88.6772C6.026 88.6772 7.76367 90.5387 7.76367 92.8345C7.76338 95.1299 6.02581 96.9902 3.88184 96.9902C1.73789 96.9902 0.000293876 95.1299 0 92.8345C0 90.5388 1.73771 88.6773 3.88184 88.6772ZM24.5874 88.6772C26.7316 88.6772 28.4707 90.5387 28.4707 92.8345C28.4704 95.1299 26.7314 96.9902 24.5874 96.9902C22.4435 96.9901 20.7059 95.1298 20.7056 92.8345C20.7056 90.5388 22.4434 88.6774 24.5874 88.6772ZM45.293 88.6772C47.4371 88.6772 49.1763 90.5387 49.1763 92.8345C49.176 95.1299 47.4369 96.9902 45.293 96.9902C43.1492 96.99 41.4114 95.1298 41.4111 92.8345C41.4111 90.5389 43.149 88.6775 45.293 88.6772ZM65.9985 88.6772C68.1427 88.6772 69.8818 90.5387 69.8818 92.8345C69.8815 95.1299 68.1425 96.9902 65.9985 96.9902C63.8548 96.9899 62.117 95.1297 62.1167 92.8345C62.1167 90.539 63.8547 88.6776 65.9985 88.6772ZM86.7056 88.6772C88.8496 88.6774 90.5874 90.5388 90.5874 92.8345C90.5871 95.1299 88.8494 96.9901 86.7056 96.9902C84.5616 96.9902 82.824 95.1299 82.8237 92.8345C82.8237 90.5387 84.5614 88.6772 86.7056 88.6772ZM107.411 88.6772C109.555 88.6773 111.293 90.5388 111.293 92.8345C111.293 95.1299 109.555 96.9902 107.411 96.9902C105.267 96.9902 103.53 95.1299 103.529 92.8345C103.529 90.5387 105.267 88.6772 107.411 88.6772ZM128.117 88.6772C130.261 88.6772 131.999 90.5387 131.999 92.8345C131.998 95.1299 130.261 96.9902 128.117 96.9902C125.973 96.9901 124.235 95.1299 124.235 92.8345C124.235 90.5388 125.973 88.6773 128.117 88.6772ZM3.88184 66.5083C6.0259 66.5083 7.76352 68.3685 7.76367 70.6641C7.76367 72.9598 6.026 74.8213 3.88184 74.8213C1.73771 74.8212 0 72.9598 0 70.6641C0.000153806 68.3685 1.7378 66.5083 3.88184 66.5083ZM24.5874 66.5083C26.7315 66.5083 28.4705 68.3685 28.4707 70.6641C28.4707 72.9598 26.7316 74.8213 24.5874 74.8213C22.4434 74.8211 20.7056 72.9597 20.7056 70.6641C20.7057 68.3686 22.4435 66.5084 24.5874 66.5083ZM45.293 66.5083C47.437 66.5083 49.1761 68.3685 49.1763 70.6641C49.1763 72.9598 47.4371 74.8213 45.293 74.8213C43.149 74.821 41.4111 72.9596 41.4111 70.6641C41.4113 68.3686 43.1491 66.5086 45.293 66.5083ZM65.9985 66.5083C68.1426 66.5083 69.8817 68.3685 69.8818 70.6641C69.8818 72.9598 68.1427 74.8213 65.9985 74.8213C63.8547 74.8209 62.1167 72.9596 62.1167 70.6641C62.1169 68.3687 63.8548 66.5087 65.9985 66.5083ZM86.7056 66.5083C88.8495 66.5084 90.5872 68.3686 90.5874 70.6641C90.5874 72.9597 88.8496 74.8212 86.7056 74.8213C84.5614 74.8213 82.8237 72.9598 82.8237 70.6641C82.8239 68.3685 84.5615 66.5083 86.7056 66.5083ZM107.411 66.5083C109.555 66.5083 111.293 68.3685 111.293 70.6641C111.293 72.9598 109.555 74.8213 107.411 74.8213C105.267 74.8213 103.529 72.9598 103.529 70.6641C103.529 68.3685 105.267 66.5083 107.411 66.5083ZM128.117 66.5083C130.261 66.5083 131.998 68.3685 131.999 70.6641C131.999 72.9598 130.261 74.8213 128.117 74.8213C125.973 74.8212 124.235 72.9597 124.235 70.6641C124.235 68.3685 125.973 66.5084 128.117 66.5083ZM3.88184 44.3379C6.02593 44.3379 7.76356 46.1995 7.76367 48.4951C7.76367 50.7908 6.026 52.6523 3.88184 52.6523C1.73771 52.6523 0 50.7908 0 48.4951C0.000109037 46.1995 1.73777 44.3379 3.88184 44.3379ZM24.5874 44.3379C26.7315 44.3379 28.4706 46.1995 28.4707 48.4951C28.4707 50.7908 26.7316 52.6523 24.5874 52.6523C22.4434 52.6522 20.7056 50.7908 20.7056 48.4951C20.7057 46.1996 22.4434 44.338 24.5874 44.3379ZM45.293 44.3379C47.4371 44.3379 49.1762 46.1995 49.1763 48.4951C49.1763 50.7908 47.4371 52.6523 45.293 52.6523C43.149 52.6521 41.4111 50.7907 41.4111 48.4951C41.4112 46.1996 43.1491 44.3381 45.293 44.3379ZM65.9985 44.3379C68.1426 44.3379 69.8817 46.1995 69.8818 48.4951C69.8818 50.7908 68.1427 52.6523 65.9985 52.6523C63.8547 52.652 62.1167 50.7906 62.1167 48.4951C62.1168 46.1997 63.8547 44.3383 65.9985 44.3379ZM86.7056 44.3379C88.8496 44.338 90.5873 46.1996 90.5874 48.4951C90.5874 50.7908 88.8496 52.6522 86.7056 52.6523C84.5614 52.6523 82.8237 50.7908 82.8237 48.4951C82.8238 46.1995 84.5615 44.3379 86.7056 44.3379ZM107.411 44.3379C109.555 44.3379 111.293 46.1995 111.293 48.4951C111.293 50.7908 109.555 52.6523 107.411 52.6523C105.267 52.6523 103.529 50.7908 103.529 48.4951C103.529 46.1995 105.267 44.3379 107.411 44.3379ZM128.117 44.3379C130.261 44.3379 131.998 46.1995 131.999 48.4951C131.999 50.7908 130.261 52.6523 128.117 52.6523C125.973 52.6523 124.235 50.7908 124.235 48.4951C124.235 46.1995 125.973 44.338 128.117 44.3379ZM3.88184 22.1689C6.026 22.1689 7.76367 24.0304 7.76367 26.3262C7.76349 28.6217 6.02588 30.4819 3.88184 30.4819C1.73782 30.4819 0.000183409 28.6217 0 26.3262C0 24.0305 1.73771 22.169 3.88184 22.1689ZM24.5874 22.1689C26.7316 22.1689 28.4707 24.0304 28.4707 26.3262C28.4705 28.6217 26.7315 30.4819 24.5874 30.4819C22.4435 30.4818 20.7057 28.6216 20.7056 26.3262C20.7056 24.0305 22.4434 22.1691 24.5874 22.1689ZM45.293 22.1689C47.4371 22.1689 49.1763 24.0304 49.1763 26.3262C49.1761 28.6217 47.437 30.4819 45.293 30.4819C43.1491 30.4817 41.4113 28.6216 41.4111 26.3262C41.4111 24.0306 43.149 22.1692 45.293 22.1689ZM65.9985 22.1689C68.1427 22.1689 69.8818 24.0304 69.8818 26.3262C69.8817 28.6217 68.1426 30.4819 65.9985 30.4819C63.8548 30.4816 62.1169 28.6215 62.1167 26.3262C62.1167 24.0307 63.8547 22.1693 65.9985 22.1689ZM86.7056 22.1689C88.8496 22.1691 90.5874 24.0305 90.5874 26.3262C90.5872 28.6217 88.8495 30.4818 86.7056 30.4819C84.5615 30.4819 82.8239 28.6217 82.8237 26.3262C82.8237 24.0304 84.5614 22.1689 86.7056 22.1689ZM107.411 22.1689C109.555 22.169 111.293 24.0305 111.293 26.3262C111.293 28.6217 109.555 30.4819 107.411 30.4819C105.267 30.4819 103.529 28.6217 103.529 26.3262C103.529 24.0304 105.267 22.1689 107.411 22.1689ZM128.117 22.1689C130.261 22.1689 131.999 24.0304 131.999 26.3262C131.998 28.6217 130.261 30.4819 128.117 30.4819C125.973 30.4818 124.235 28.6217 124.235 26.3262C124.235 24.0305 125.973 22.169 128.117 22.1689ZM3.88184 0C6.02583 0 7.7634 1.86029 7.76367 4.15576C7.76367 6.45149 6.026 8.31299 3.88184 8.31299C1.7377 8.31295 0 6.45146 0 4.15576C0.000272037 1.86031 1.73787 3.54137e-05 3.88184 0ZM24.5874 0C26.7314 0 28.4704 1.86029 28.4707 4.15576C28.4707 6.45149 26.7316 8.31299 24.5874 8.31299C22.4434 8.31284 20.7056 6.4514 20.7056 4.15576C20.7058 1.86038 22.4435 0.000145063 24.5874 0ZM45.293 0C47.437 0 49.176 1.86029 49.1763 4.15576C49.1763 6.45149 47.4371 8.31299 45.293 8.31299C43.149 8.31274 41.4111 6.45133 41.4111 4.15576C41.4114 1.86045 43.1492 0.000252662 45.293 0ZM65.9985 0C68.1425 0 69.8816 1.86029 69.8818 4.15576C69.8818 6.45149 68.1427 8.31299 65.9985 8.31299C63.8547 8.31263 62.1167 6.45126 62.1167 4.15576C62.117 1.86052 63.8548 0.000360254 65.9985 0ZM86.7056 0C88.8495 0.000123129 90.5871 1.86037 90.5874 4.15576C90.5874 6.45141 88.8496 8.31287 86.7056 8.31299C84.5614 8.31299 82.8237 6.45149 82.8237 4.15576C82.824 1.86029 84.5616 0 86.7056 0ZM107.411 0C109.555 1.71768e-05 111.293 1.86031 111.293 4.15576C111.293 6.45148 109.555 8.31297 107.411 8.31299C105.267 8.31299 103.529 6.45149 103.529 4.15576C103.53 1.86029 105.267 0 107.411 0ZM128.117 0C130.261 0 131.998 1.86029 131.999 4.15576C131.999 6.45149 130.261 8.31299 128.117 8.31299C125.973 8.3129 124.235 6.45143 124.235 4.15576C124.235 1.86035 125.973 8.87778e-05 128.117 0Z" fill="#4D2C5E"/>
</svg>
