<svg xmlns="http://www.w3.org/2000/svg" width="24" height="24"><path d="M23.2 21.334H.8a.784.784 0 01-.566-.244.858.858 0 010-1.178.784.784 0 01.566-.245h22.4a.784.784 0 01.566.244.858.858 0 010 1.178.784.784 0 01-.566.245zm0-8.334H.8a.784.784 0 01-.566-.244.858.858 0 010-1.179.784.784 0 01.566-.244h22.4a.784.784 0 01.566.244.858.858 0 010 1.179.784.784 0 01-.566.244zm0-8.333H.8a.784.784 0 01-.566-.244.858.858 0 010-1.179A.784.784 0 01.8 3h22.4a.784.784 0 01.566.244.858.858 0 010 1.179.784.784 0 01-.566.244z" fill="#1e3c67"/><path fill="none" d="M0 0h24v24H0z"/></svg>